<svg width="16" height="17" viewBox="0 0 16 17" fill="none" xmlns="http://www.w3.org/2000/svg">
<g clip-path="url(#clip0_2_3296)">
<path d="M6.00004 15.1666C6.36823 15.1666 6.66671 14.8681 6.66671 14.4999C6.66671 14.1317 6.36823 13.8333 6.00004 13.8333C5.63185 13.8333 5.33337 14.1317 5.33337 14.4999C5.33337 14.8681 5.63185 15.1666 6.00004 15.1666Z" fill="white" stroke="white" stroke-width="1.5" stroke-linecap="round" stroke-linejoin="round"/>
<path d="M13.3333 15.1666C13.7015 15.1666 14 14.8681 14 14.4999C14 14.1317 13.7015 13.8333 13.3333 13.8333C12.9651 13.8333 12.6666 14.1317 12.6666 14.4999C12.6666 14.8681 12.9651 15.1666 13.3333 15.1666Z" fill="white" stroke="white" stroke-width="1.5" stroke-linecap="round" stroke-linejoin="round"/>
<path d="M0.666626 1.16663H3.33329L5.11996 10.0933C5.18092 10.4002 5.3479 10.6759 5.59166 10.8722C5.83541 11.0684 6.14042 11.1726 6.45329 11.1666H12.9333C13.2462 11.1726 13.5512 11.0684 13.7949 10.8722C14.0387 10.6759 14.2057 10.4002 14.2666 10.0933L15.3333 4.49996H3.99996" stroke="white" stroke-width="1.5" stroke-linecap="round" stroke-linejoin="round"/>
</g>
<defs>
<clipPath id="clip0_2_3296">
<rect width="16" height="16" fill="white" transform="translate(0 0.499939)"/>
</clipPath>
</defs>
</svg>
