<svg width="20" height="21" viewBox="0 0 20 21" fill="none" xmlns="http://www.w3.org/2000/svg">
<g clip-path="url(#clip0_2_1237)">
<path d="M0 14.9651V6.75H1.90185L2.65584 9.33831C2.73836 9.6084 2.79838 9.84472 2.83589 10.0473C2.88091 10.2499 2.90716 10.3924 2.91467 10.4749C2.92217 10.3924 2.94468 10.2499 2.98219 10.0473C3.0272 9.84472 3.08722 9.6084 3.16224 9.33831L3.90498 6.75H5.80683V14.9651H4.26509V12.7144C4.26509 12.3017 4.27259 11.8704 4.2876 11.4202C4.31011 10.9626 4.33636 10.5087 4.36637 10.0585C4.39638 9.6084 4.43014 9.18827 4.46765 8.79814C4.50517 8.40052 4.53893 8.05541 4.56894 7.76282L3.62364 11.4765H2.19444L1.20413 7.76282C1.24164 8.04041 1.27915 8.37426 1.31666 8.76438C1.35418 9.147 1.38794 9.56338 1.41795 10.0135C1.45546 10.4562 1.48547 10.9101 1.50797 11.3752C1.53048 11.8404 1.54173 12.2867 1.54173 12.7144V14.9651H0Z" fill="#D2D2D6"/>
<path d="M6.78149 14.9651L8.79587 6.75H10.934L12.9709 14.9651H11.2491L10.8553 13.1082H8.89715L8.50328 14.9651H6.78149ZM9.17849 11.7578H10.5627L10.1688 9.7772C10.1163 9.49211 10.06 9.21077 10 8.93319C9.94748 8.6481 9.90622 8.42678 9.87621 8.26923C9.8462 8.42678 9.80494 8.64435 9.75242 8.92193C9.70741 9.19952 9.65489 9.48086 9.59487 9.76595L9.17849 11.7578Z" fill="#D2D2D6"/>
<path d="M13.698 14.9651L15.9037 10.7225L13.8443 6.75H15.7011L16.5564 8.55057C16.6389 8.71562 16.7065 8.86567 16.759 9.00071C16.819 9.13575 16.8565 9.23328 16.8715 9.2933C16.8865 9.23328 16.9203 9.13575 16.9728 9.00071C17.0253 8.86567 17.0891 8.71562 17.1641 8.55057L18.0419 6.75H19.8537L17.7943 10.7225L20 14.9651H18.1432L17.1529 12.9394C17.0778 12.7744 17.0103 12.6206 16.9503 12.4781C16.8903 12.3355 16.8453 12.2267 16.8152 12.1517C16.7927 12.2267 16.7552 12.3355 16.7027 12.4781C16.6502 12.6206 16.5827 12.7744 16.5001 12.9394L15.5098 14.9651H13.698Z" fill="#D2D2D6"/>
<path fill-rule="evenodd" clip-rule="evenodd" d="M10.0002 18.3571C8.302 18.3571 7.14763 18.3557 6.25309 18.288C5.38087 18.2219 4.93139 18.102 4.61755 17.9556C4.34649 17.8292 4.09123 17.6757 3.85513 17.4983C3.59208 17.3008 3.28097 17.1668 2.95201 17.1668V17.1668C1.98143 17.1668 1.40688 18.2005 2.1283 18.8498C2.59793 19.2724 3.13073 19.6267 3.71194 19.8977C5.00359 20.5 6.66912 20.5 10.0002 20.5C13.3313 20.5 14.9968 20.5 16.2885 19.8977C16.8697 19.6267 17.4025 19.2724 17.8721 18.8498C18.5935 18.2005 18.019 17.1668 17.0484 17.1668V17.1668C16.7194 17.1668 16.4083 17.3008 16.1453 17.4983C15.9092 17.6757 15.6539 17.8292 15.3828 17.9556C15.069 18.102 14.6195 18.2219 13.7473 18.288C12.8528 18.3557 11.6984 18.3571 10.0002 18.3571ZM2.95176 3.83344C3.28075 3.83344 3.59188 3.69939 3.85493 3.5018C4.09108 3.32442 4.34642 3.17083 4.61755 3.0444C4.93139 2.89805 5.38087 2.77808 6.25309 2.71203C7.14763 2.64429 8.302 2.64286 10.0002 2.64286C11.6984 2.64286 12.8528 2.64429 13.7473 2.71203C14.6195 2.77808 15.069 2.89805 15.3828 3.0444C15.654 3.17083 15.9093 3.32442 16.1455 3.5018C16.4085 3.69939 16.7196 3.83344 17.0486 3.83344V3.83344C18.0192 3.83344 18.5937 2.79978 17.8724 2.15048C17.4027 1.7277 16.8698 1.37338 16.2885 1.10231C14.9968 0.5 13.3313 0.5 10.0002 0.5C6.66912 0.5 5.00359 0.5 3.71194 1.10231C3.13062 1.37338 2.59772 1.7277 2.12803 2.15048C1.40668 2.79978 1.98122 3.83344 2.95176 3.83344V3.83344Z" fill="#D2D2D6"/>
</g>
<defs>
<clipPath id="clip0_2_1237">
<rect width="20" height="20" fill="white" transform="translate(0 0.5)"/>
</clipPath>
</defs>
</svg>
