<svg width="20" height="21" viewBox="0 0 20 21" fill="none" xmlns="http://www.w3.org/2000/svg">
<g clip-path="url(#clip0_2_1236)">
<path d="M0 14.5224V6.11816H1.94563L2.71698 8.76607C2.8014 9.04237 2.86281 9.28414 2.90118 9.49136C2.94723 9.69859 2.97409 9.84442 2.98177 9.92884C2.98944 9.84442 3.01247 9.69859 3.05085 9.49136C3.0969 9.28414 3.1583 9.04237 3.23505 8.76607L3.99488 6.11816H5.94051V14.5224H4.36328V12.2199C4.36328 11.7977 4.37096 11.3564 4.38631 10.8959C4.40933 10.4277 4.4362 9.96338 4.4669 9.50287C4.4976 9.04237 4.53214 8.61257 4.57051 8.21346C4.60889 7.80668 4.64342 7.45363 4.67412 7.1543L3.70706 10.9535H2.24496L1.23185 7.1543C1.27023 7.43828 1.3086 7.77982 1.34698 8.17892C1.38535 8.57035 1.41989 8.99632 1.45059 9.45682C1.48897 9.90965 1.51967 10.374 1.54269 10.8499C1.56572 11.3257 1.57723 11.7824 1.57723 12.2199V14.5224H0Z" fill="#D2D2D6"/>
<path d="M7.57081 14.5224V13.0257H9.24014V7.6148H7.57081V6.11816H12.6364V7.6148H10.967V13.0257H12.6364V14.5224H7.57081Z" fill="#D2D2D6"/>
<path d="M14.4739 14.5224V6.11816H16.4886L18.6645 12.6228C18.6415 12.3388 18.6146 12.0126 18.5839 11.6442C18.5532 11.2681 18.5263 10.8959 18.5033 10.5275C18.488 10.1514 18.4803 9.8329 18.4803 9.57195V6.11816H19.9999V14.5224H17.9852L15.8324 8.01775C15.8554 8.26335 15.8784 8.555 15.9015 8.89271C15.9245 9.23041 15.9437 9.57195 15.959 9.91733C15.982 10.2627 15.9936 10.5697 15.9936 10.8383V14.5224H14.4739Z" fill="#D2D2D6"/>
<path fill-rule="evenodd" clip-rule="evenodd" d="M10.0002 18.3571C8.302 18.3571 7.14763 18.3557 6.25309 18.288C5.38087 18.2219 4.93139 18.102 4.61755 17.9556C4.34649 17.8292 4.09123 17.6757 3.85513 17.4983C3.59208 17.3008 3.28097 17.1668 2.95201 17.1668V17.1668C1.98143 17.1668 1.40688 18.2005 2.1283 18.8498C2.59793 19.2724 3.13073 19.6267 3.71194 19.8977C5.00359 20.5 6.66912 20.5 10.0002 20.5C13.3313 20.5 14.9968 20.5 16.2885 19.8977C16.8697 19.6267 17.4025 19.2724 17.8721 18.8498C18.5935 18.2005 18.019 17.1668 17.0484 17.1668V17.1668C16.7194 17.1668 16.4083 17.3008 16.1453 17.4983C15.9092 17.6757 15.6539 17.8292 15.3828 17.9556C15.069 18.102 14.6195 18.2219 13.7473 18.288C12.8528 18.3557 11.6984 18.3571 10.0002 18.3571ZM2.95176 3.83343C3.28075 3.83343 3.59188 3.69939 3.85493 3.5018C4.09108 3.32442 4.34642 3.17083 4.61755 3.0444C4.93139 2.89805 5.38087 2.77808 6.25309 2.71203C7.14763 2.64429 8.302 2.64286 10.0002 2.64286C11.6984 2.64286 12.8528 2.64429 13.7473 2.71203C14.6195 2.77808 15.069 2.89805 15.3828 3.0444C15.654 3.17083 15.9093 3.32442 16.1455 3.5018C16.4085 3.69939 16.7196 3.83343 17.0486 3.83343V3.83343C18.0192 3.83343 18.5937 2.79977 17.8724 2.15048C17.4027 1.7277 16.8698 1.37338 16.2885 1.10231C14.9968 0.5 13.3313 0.5 10.0002 0.5C6.66912 0.5 5.00359 0.5 3.71194 1.10231C3.13062 1.37338 2.59772 1.7277 2.12803 2.15048C1.40668 2.79978 1.98122 3.83343 2.95176 3.83343V3.83343Z" fill="#D2D2D6"/>
</g>
<defs>
<clipPath id="clip0_2_1236">
<rect width="20" height="20" fill="white" transform="translate(0 0.5)"/>
</clipPath>
</defs>
</svg>
