<svg width="25" height="24" viewBox="0 0 25 24" fill="none" xmlns="http://www.w3.org/2000/svg">
<g clip-path="url(#clip0_2_1064)">
<path d="M12.8334 15C14.4902 15 15.8334 13.6569 15.8334 12C15.8334 10.3431 14.4902 9 12.8334 9C11.1765 9 9.83337 10.3431 9.83337 12C9.83337 13.6569 11.1765 15 12.8334 15Z" stroke="white" stroke-width="1.5" stroke-linecap="round" stroke-linejoin="round"/>
<path d="M20.2334 15C20.1003 15.3016 20.0606 15.6362 20.1194 15.9606C20.1782 16.285 20.3328 16.5843 20.5634 16.82L20.6234 16.88C20.8093 17.0657 20.9568 17.2863 21.0575 17.5291C21.1581 17.7719 21.2099 18.0322 21.2099 18.295C21.2099 18.5578 21.1581 18.8181 21.0575 19.0609C20.9568 19.3037 20.8093 19.5243 20.6234 19.71C20.4376 19.896 20.2171 20.0435 19.9743 20.1441C19.7315 20.2448 19.4712 20.2966 19.2084 20.2966C18.9455 20.2966 18.6853 20.2448 18.4425 20.1441C18.1997 20.0435 17.9791 19.896 17.7934 19.71L17.7334 19.65C17.4977 19.4195 17.1984 19.2648 16.874 19.206C16.5496 19.1472 16.215 19.1869 15.9134 19.32C15.6176 19.4468 15.3654 19.6572 15.1877 19.9255C15.01 20.1938 14.9147 20.5082 14.9134 20.83V21C14.9134 21.5304 14.7027 22.0391 14.3276 22.4142C13.9525 22.7893 13.4438 23 12.9134 23C12.3829 23 11.8742 22.7893 11.4992 22.4142C11.1241 22.0391 10.9134 21.5304 10.9134 21V20.91C10.9056 20.579 10.7985 20.258 10.6059 19.9887C10.4133 19.7194 10.1441 19.5143 9.83337 19.4C9.53176 19.2669 9.19718 19.2272 8.87279 19.286C8.54839 19.3448 8.24905 19.4995 8.01337 19.73L7.95337 19.79C7.76763 19.976 7.54705 20.1235 7.30425 20.2241C7.06146 20.3248 6.8012 20.3766 6.53837 20.3766C6.27554 20.3766 6.01529 20.3248 5.77249 20.2241C5.5297 20.1235 5.30912 19.976 5.12337 19.79C4.93742 19.6043 4.7899 19.3837 4.68925 19.1409C4.58861 18.8981 4.5368 18.6378 4.5368 18.375C4.5368 18.1122 4.58861 17.8519 4.68925 17.6091C4.7899 17.3663 4.93742 17.1457 5.12337 16.96L5.18337 16.9C5.41391 16.6643 5.56856 16.365 5.62738 16.0406C5.6862 15.7162 5.64649 15.3816 5.51337 15.08C5.38661 14.7842 5.17613 14.532 4.90784 14.3543C4.63955 14.1766 4.32516 14.0813 4.00337 14.08H3.83337C3.30294 14.08 2.79423 13.8693 2.41916 13.4942C2.04409 13.1191 1.83337 12.6104 1.83337 12.08C1.83337 11.5496 2.04409 11.0409 2.41916 10.6658C2.79423 10.2907 3.30294 10.08 3.83337 10.08H3.92337C4.25437 10.0723 4.57538 9.96512 4.84467 9.77251C5.11397 9.5799 5.31909 9.31074 5.43337 9C5.56649 8.69838 5.6062 8.36381 5.54738 8.03941C5.48856 7.71502 5.33391 7.41568 5.10337 7.18L5.04337 7.12C4.85742 6.93425 4.7099 6.71368 4.60925 6.47088C4.50861 6.22808 4.4568 5.96783 4.4568 5.705C4.4568 5.44217 4.50861 5.18192 4.60925 4.93912C4.7099 4.69632 4.85742 4.47575 5.04337 4.29C5.22912 4.10405 5.4497 3.95653 5.69249 3.85588C5.93529 3.75523 6.19554 3.70343 6.45837 3.70343C6.7212 3.70343 6.98146 3.75523 7.22425 3.85588C7.46705 3.95653 7.68763 4.10405 7.87337 4.29L7.93337 4.35C8.16905 4.58054 8.46839 4.73519 8.79279 4.794C9.11718 4.85282 9.45176 4.81312 9.75337 4.68H9.83337C10.1291 4.55324 10.3814 4.34276 10.5591 4.07447C10.7367 3.80618 10.8321 3.49179 10.8334 3.17V3C10.8334 2.46957 11.0441 1.96086 11.4192 1.58579C11.7942 1.21071 12.3029 1 12.8334 1C13.3638 1 13.8725 1.21071 14.2476 1.58579C14.6227 1.96086 14.8334 2.46957 14.8334 3V3.09C14.8347 3.41179 14.93 3.72618 15.1077 3.99447C15.2854 4.26276 15.5376 4.47324 15.8334 4.6C16.135 4.73312 16.4696 4.77282 16.794 4.714C17.1184 4.65519 17.4177 4.50054 17.6534 4.27L17.7134 4.21C17.8991 4.02405 18.1197 3.87653 18.3625 3.77588C18.6053 3.67523 18.8655 3.62343 19.1284 3.62343C19.3912 3.62343 19.6515 3.67523 19.8943 3.77588C20.1371 3.87653 20.3576 4.02405 20.5434 4.21C20.7293 4.39575 20.8768 4.61632 20.9775 4.85912C21.0781 5.10192 21.1299 5.36217 21.1299 5.625C21.1299 5.88783 21.0781 6.14808 20.9775 6.39088C20.8768 6.63368 20.7293 6.85425 20.5434 7.04L20.4834 7.1C20.2528 7.33568 20.0982 7.63502 20.0394 7.95941C19.9806 8.28381 20.0203 8.61838 20.1534 8.92V9C20.2801 9.29577 20.4906 9.54802 20.7589 9.72569C21.0272 9.90337 21.3416 9.99872 21.6634 10H21.8334C22.3638 10 22.8725 10.2107 23.2476 10.5858C23.6227 10.9609 23.8334 11.4696 23.8334 12C23.8334 12.5304 23.6227 13.0391 23.2476 13.4142C22.8725 13.7893 22.3638 14 21.8334 14H21.7434C21.4216 14.0013 21.1072 14.0966 20.8389 14.2743C20.5706 14.452 20.3601 14.7042 20.2334 15V15Z" stroke="white" stroke-width="1.5" stroke-linecap="round" stroke-linejoin="round"/>
</g>
<defs>
<clipPath id="clip0_2_1064">
<rect width="24" height="24" fill="white" transform="translate(0.833374)"/>
</clipPath>
</defs>
</svg>
