<svg width="16" height="17" viewBox="0 0 16 17" fill="none" xmlns="http://www.w3.org/2000/svg">
<g clip-path="url(#clip0_2_3371)">
<path d="M10.6666 2.49994H0.666626V11.1666H10.6666V2.49994Z" stroke="white" stroke-width="1.5" stroke-linecap="round" stroke-linejoin="round"/>
<path d="M10.6666 5.83325H13.3333L15.3333 7.83325V11.1666H10.6666V5.83325Z" stroke="white" stroke-width="1.5" stroke-linecap="round" stroke-linejoin="round"/>
<path d="M3.66667 14.5C4.58714 14.5 5.33333 13.7538 5.33333 12.8333C5.33333 11.9128 4.58714 11.1666 3.66667 11.1666C2.74619 11.1666 2 11.9128 2 12.8333C2 13.7538 2.74619 14.5 3.66667 14.5Z" stroke="white" stroke-width="1.5" stroke-linecap="round" stroke-linejoin="round"/>
<path d="M12.3333 14.5C13.2538 14.5 14 13.7538 14 12.8333C14 11.9128 13.2538 11.1666 12.3333 11.1666C11.4128 11.1666 10.6666 11.9128 10.6666 12.8333C10.6666 13.7538 11.4128 14.5 12.3333 14.5Z" stroke="white" stroke-width="1.5" stroke-linecap="round" stroke-linejoin="round"/>
</g>
<defs>
<clipPath id="clip0_2_3371">
<rect width="16" height="16" fill="white" transform="translate(0 0.499939)"/>
</clipPath>
</defs>
</svg>
